<?xml version="1.0" encoding="utf-8"?>
<!-- Generator: Adobe Illustrator 28.1.0, SVG Export Plug-In . SVG Version: 6.00 Build 0)  -->
<svg version="1.1" id="set" xmlns="http://www.w3.org/2000/svg" xmlns:xlink="http://www.w3.org/1999/xlink" x="0px" y="0px"
	 viewBox="0 0 507.9 751.3" style="enable-background:new 0 0 507.9 751.3;" xml:space="preserve">
<style type="text/css">
	.st0{fill:#413D39;}
</style>
<g>
	<path class="st0" d="M3.3,269.7V5.9h263.8c0.9,0,1.7-0.7,1.7-1.7s-0.7-1.7-1.7-1.7H1.7L0,4.3v265.5c0,0.9,0.7,1.7,1.7,1.7
		S3.3,270.7,3.3,269.7L3.3,269.7z"/>
	<g>
		<g>
			<g>
				<path class="st0" d="M11.4,65.9c2-2,4.4-3.7,7-4.9l0.7-0.3c5.2-2.5,12.9-4.3,20.7-4.7c20.4-0.9,26.6-14.2,26.6-14.3
					s0.1-0.1,0.1-0.2c2.8-4.6,1.3-10.7-3.4-13.6c-3.5-2.1-8.2-1-10.3,2.5c-0.8,1.3-1,3-0.5,4.5c0.7,2.3,2.2,3.7,4.1,4
					c1.6,0.2,3.2-0.6,4.1-2c0.5-0.8,1.6-1.1,2.4-0.6c0.8,0.5,1.1,1.6,0.6,2.4c-1.5,2.6-4.5,4-7.5,3.6c-3.3-0.4-5.9-2.8-7-6.4
					c-0.8-2.5-0.5-5.2,0.8-7.4c3.2-5.1,9.9-6.7,15.1-3.6c6.3,3.8,8.3,12,4.6,18.2c-0.7,1.5-7.8,15.3-29.6,16.3
					c-7.2,0.4-14.7,2-19.4,4.4l-0.7,0.3C13.5,67.1,9.1,73,8,80c-1,6.7,1.2,13,6.1,17.4c0.4,0.3,0.8,0.7,1.2,1
					c3.7,2.9,8.4,3.9,13.3,3.1c7-1.3,11.7-5.3,13.1-11c1.2-5.1-0.7-10.5-4.9-13.8c-2.2-1.7-5-2.3-7.8-1.8c-4.3,0.8-7.2,3.1-8,6.5
					c-0.8,3.1,0.4,6.3,2.9,8.2c1.3,1,2.9,1.4,4.5,1.2c1.6-0.2,3-1,3.9-2.3c0.6-0.8,1.7-0.9,2.4-0.3c0.8,0.6,0.9,1.7,0.3,2.4
					c-1.5,2-3.7,3.3-6.2,3.6c-2.5,0.3-5-0.3-7-1.9c-3.6-2.8-5.2-7.4-4.1-11.8c1.2-4.7,5.2-8.2,10.8-9.1c3.8-0.7,7.6,0.2,10.6,2.5
					c5.3,4.1,7.7,10.9,6.1,17.3c-1.7,7-7.6,12-15.8,13.6c-5.9,1.1-11.6-0.2-16.1-3.7c-0.5-0.4-0.9-0.8-1.4-1.2
					c-5.9-5-8.5-12.5-7.3-20.4C5.4,74.3,7.8,69.5,11.4,65.9L11.4,65.9z"/>
				<path class="st0" d="M62.3,15c3.6-3.6,8.4-6.1,13.6-6.9c7.9-1.2,15.3,1.5,20.5,7.3c0.4,0.4,0.8,0.9,1.2,1.4
					c3.5,4.5,4.8,10.2,3.7,16.1c-1.5,8.2-6.6,14.2-13.6,15.8c-6.5,1.6-13.3-0.8-17.3-6.1c-2.3-2.9-3.2-6.8-2.5-10.6
					c1-5.6,4.4-9.6,9.1-10.8c4.4-1.1,9,0.5,11.8,4.1c1.6,2,2.2,4.5,1.9,7c-0.3,2.5-1.6,4.7-3.6,6.2c-0.8,0.6-1.8,0.4-2.4-0.3
					c-0.6-0.8-0.4-1.8,0.3-2.4c1.3-1,2.1-2.4,2.3-3.9c0.2-1.6-0.2-3.2-1.2-4.5c-1.9-2.5-5.2-3.6-8.2-2.9c-3.4,0.8-5.8,3.8-6.5,8
					c-0.5,2.8,0.2,5.7,1.8,7.8c3.2,4.2,8.6,6.1,13.8,4.9c5.7-1.4,9.7-6.1,11-13.1c0.9-4.9-0.2-9.6-3.1-13.3c-0.3-0.4-0.7-0.8-1-1.2
					c-4.4-4.9-10.7-7.1-17.4-6.1c-7,1.1-12.9,5.5-15.9,11.9l-0.3,0.7c-2.3,4.8-4,12.2-4.4,19.5c-1,21.8-14.8,28.9-16.3,29.6
					c-6.3,3.7-14.4,1.7-18.2-4.6c-3.1-5.2-1.5-11.9,3.6-15.1c2.1-1.3,4.9-1.6,7.4-0.8c3.6,1.1,6,3.8,6.4,7c0.4,3-1.1,5.9-3.6,7.4
					c-0.8,0.5-1.9,0.2-2.4-0.6c-0.5-0.8-0.2-1.9,0.6-2.4c1.4-0.8,2.2-2.4,2-4.1c-0.2-1.9-1.7-3.4-4-4.1c-1.5-0.5-3.2-0.3-4.5,0.5
					c-3.5,2.2-4.6,6.8-2.5,10.3c2.8,4.7,8.9,6.2,13.6,3.4c0.1,0,0.1-0.1,0.2-0.1c0.5-0.2,13.4-6.3,14.3-26.6
					c0.4-7.8,2.2-15.6,4.7-20.8l0.3-0.6C58.7,19.3,60.3,17,62.3,15L62.3,15z"/>
			</g>
			<path class="st0" d="M57.4,61c0.5-0.5,1.3-0.7,1.9-0.4c0.5,0.2,13.5,5.8,19.8,13.9c3,3.8,2.6,7.3,0.8,9c-1.7,1.7-5.2,2.2-9-0.8
				c-8-6.3-13.6-19.2-13.9-19.8C56.8,62.3,56.9,61.5,57.4,61z M77.5,81.1c0.7-0.7,0.5-2.4-1.1-4.4l0,0c-3.5-4.5-9.7-8.3-13.9-10.6
				c2.3,4.2,6.1,10.4,10.6,13.9C75.1,81.6,76.9,81.8,77.5,81.1L77.5,81.1z M77.8,75.6L77.8,75.6L77.8,75.6z"/>
			<g>
				<path class="st0" d="M51.1,69.6c0.3-0.3,0.8-0.5,1.2-0.5c0.6,0,1.2,0.3,1.5,0.8c0.4,0.6,3.8,6.1,2.9,10.6l0,0
					c-0.4,2.2-2.2,3.6-4.3,3.6c-2.2,0-4-1.5-4.4-3.6c-0.9-4.5,2.5-10,2.9-10.6C50.9,69.8,51,69.7,51.1,69.6L51.1,69.6z M55,80.2
					l-1.7-0.3c0.3-1.6-0.3-3.5-1-5.2c-0.7,1.7-1.2,3.6-0.9,5.2c0.2,0.8,0.7,0.8,1,0.8s0.8-0.1,0.9-0.8L55,80.2z"/>
				<path class="st0" d="M66,54.7c0.1-0.1,0.2-0.2,0.3-0.2c0.6-0.4,6.1-3.8,10.6-2.9c2.1,0.4,3.6,2.2,3.6,4.4s-1.5,3.9-3.6,4.3l0,0
					c-4.5,0.9-10-2.5-10.6-2.9c-0.5-0.3-0.8-0.9-0.8-1.5C65.5,55.4,65.7,55,66,54.7L66,54.7z M76.8,56.6c0.2-0.2,0.2-0.5,0.2-0.7
					s-0.1-0.8-0.8-1c-1.5-0.3-3.5,0.2-5.2,0.9c1.7,0.7,3.7,1.3,5.2,1C76.5,56.8,76.7,56.7,76.8,56.6z"/>
			</g>
		</g>
		<g>
			<g>
				<polygon class="st0" points="27.1,230.3 33.7,223.7 40.4,230.3 33.7,237 				"/>
				<polygon class="st0" points="27.1,217 33.7,210.3 40.4,217 33.7,223.7 				"/>
			</g>
			<g>
				<polygon class="st0" points="27.1,144.5 33.7,137.8 40.4,144.5 33.7,151.1 				"/>
				<polygon class="st0" points="27.1,131.1 33.7,124.5 40.4,131.1 33.7,137.8 				"/>
			</g>
			<path class="st0" d="M33.7,88.1c-0.9,0-1.7,0.7-1.7,1.7v160.1c0,0.9,0.7,1.7,1.7,1.7s1.7-0.7,1.7-1.7V89.8
				C35.4,88.9,34.7,88.1,33.7,88.1z"/>
		</g>
		<g>
			<g>
				<polygon class="st0" points="226.4,44 219.7,37.4 226.4,30.7 233,37.4 				"/>
				<polygon class="st0" points="213,44 206.4,37.4 213,30.7 219.7,37.4 				"/>
			</g>
			<g>
				<polygon class="st0" points="140.5,44 133.8,37.4 140.5,30.7 147.2,37.4 				"/>
				<polygon class="st0" points="127.2,44 120.5,37.4 127.2,30.7 133.8,37.4 				"/>
			</g>
			<path class="st0" d="M246,35.7H85.8c-0.9,0-1.7,0.7-1.7,1.7s0.7,1.7,1.7,1.7H246c0.9,0,1.7-0.7,1.7-1.7S246.9,35.7,246,35.7z"/>
		</g>
		<g>
			<path class="st0" d="M16.7,49.8c-2-2-3.3-4.6-3.6-7.5V42c-0.4-2.8,0-6.7,1-10.4c2-7.2-0.8-11.4-1.8-12.6c0.6,1.3,0.7,2.8,0,4.1
				c-0.8,1.8-2.7,2.8-4.8,2.8c-1.5,0-3-0.8-3.9-1.9c-2.2-2.6-1.9-6.5,0.7-8.7c1.5-1.3,3.4-1.9,5.3-1.7c1.9,0.1,3.7,1,4.9,2.5
				c0.8,0.8,6,6.4,3.1,16.7c-0.9,3.2-1.2,6.6-0.9,8.9v0.4c0.3,3,2.1,5.5,4.8,6.9c2.5,1.3,5.3,1.2,7.7-0.1c0.2-0.1,0.4-0.2,0.6-0.3
				c1.6-1,2.6-2.8,2.9-4.8c0.4-2.9-0.5-5.3-2.5-6.5c-1.8-1.1-4-1-5.7,0.1c-0.8,0.5-1.4,1.5-1.5,2.5c-0.2,1.6,0.2,2.9,1.3,3.5
				c0.9,0.6,2,0.5,2.9-0.1c0.8-0.5,1-1.7,0.5-2.5c-0.6-0.8-0.4-2,0.5-2.6s2-0.3,2.6,0.5c1.7,2.5,1,5.9-1.5,7.6
				c-2.1,1.4-4.9,1.5-7,0.1c-2.3-1.5-3.4-4.2-3-7.2c0.3-2.1,1.4-3.9,3.1-5.1c2.9-2,6.8-2.1,9.8-0.2c3.2,2,4.8,5.8,4.2,10.2
				c-0.4,3-2,5.7-4.5,7.4c-0.3,0.2-0.5,0.3-0.8,0.5c-3.5,2-7.6,2.1-11.2,0.2C18.7,51.5,17.6,50.7,16.7,49.8L16.7,49.8z M10.2,17.3
				c-0.3-0.1-0.6-0.2-0.9-0.2c-1-0.1-1.9,0.2-2.6,0.9c-1.1,0.9-1.2,2.5-0.3,3.5C6.6,21.8,7.1,22,7.6,22c0.7,0,1.2-0.2,1.4-0.6
				c0.2-0.3,0.1-0.7-0.1-1c-0.7-0.8-0.6-2,0.2-2.6C9.3,17.5,9.8,17.4,10.2,17.3L10.2,17.3z"/>
			<path class="st0" d="M11.5,18.2c-1.2-1.2-2-2.8-2.1-4.6c-0.1-1.9,0.5-3.8,1.7-5.3c2.2-2.6,6.1-2.9,8.7-0.7
				c1.1,0.9,1.8,2.4,1.9,3.9c0,2.2-1,4-2.8,4.8c-1.3,0.6-2.8,0.6-4.1,0c1.2,1,5.4,3.8,12.6,1.8c3.7-1,7.6-1.4,10.4-1h0.3
				c4.2,0.5,7.9,3,9.8,6.8c1.8,3.6,1.8,7.7-0.2,11.2c-0.2,0.3-0.3,0.5-0.5,0.8C45.7,38.3,43,40,40,40.4c-4.3,0.6-8.1-1-10.2-4.2
				c-1.9-3-1.8-6.8,0.2-9.8c1.1-1.7,3-2.8,5.1-3.1c3.1-0.5,5.8,0.7,7.2,3c1.3,2.1,1.3,4.9-0.1,7c-1.7,2.5-5.1,3.2-7.6,1.5
				c-0.8-0.6-1.1-1.7-0.5-2.6c0.6-0.9,1.7-1.1,2.6-0.5c0.8,0.5,1.9,0.3,2.5-0.5c0.6-0.9,0.6-2,0.1-2.9c-0.7-1-2-1.5-3.5-1.3
				c-1,0.1-2,0.7-2.5,1.5c-1.2,1.7-1.2,4-0.1,5.7c1.2,2,3.6,2.9,6.5,2.5c2-0.3,3.7-1.3,4.8-2.9c0.1-0.2,0.2-0.4,0.3-0.5
				c1.4-2.4,1.4-5.2,0.1-7.7c-1.4-2.7-3.9-4.5-6.9-4.8h-0.3c-2.4-0.3-5.8,0-9,0.9c-10.2,2.9-15.9-2.3-16.7-3.1
				C11.7,18.4,11.6,18.3,11.5,18.2L11.5,18.2z M17.6,10.4C17.6,10.4,17.5,10.4,17.6,10.4c-1.1-1-2.7-0.8-3.6,0.2
				c-0.6,0.7-0.9,1.7-0.9,2.6c0,0.3,0.1,0.6,0.2,0.9c0-0.4,0.1-0.8,0.4-1.2c0.7-0.8,1.8-0.9,2.6-0.2c0.3,0.2,0.7,0.3,1,0.1
				c0.4-0.2,0.7-0.7,0.6-1.4C18,11.1,17.8,10.7,17.6,10.4L17.6,10.4z"/>
		</g>
	</g>
</g>
<g>
	<path class="st0" d="M503.5,483v263.8H239.7c-0.9,0-1.7,0.7-1.7,1.7s0.7,1.7,1.7,1.7h265.5l1.7-1.7V483c0-0.9-0.7-1.7-1.7-1.7
		S503.5,482,503.5,483L503.5,483z"/>
	<g>
		<g>
			<g>
				<path class="st0" d="M495.4,686.8c-2,2-4.4,3.7-7,4.9l-0.7,0.3c-5.2,2.5-12.9,4.3-20.7,4.7c-20.4,0.9-26.6,14.2-26.6,14.3
					s-0.1,0.1-0.1,0.2c-2.8,4.6-1.3,10.7,3.4,13.6c3.5,2.1,8.2,1,10.3-2.5c0.8-1.3,1-3,0.5-4.5c-0.7-2.3-2.2-3.7-4.1-4
					c-1.6-0.2-3.2,0.6-4.1,2c-0.5,0.8-1.6,1.1-2.4,0.6s-1.1-1.6-0.6-2.4c1.6-2.6,4.5-4,7.4-3.6c3.3,0.4,5.9,2.8,7,6.4
					c0.8,2.5,0.5,5.2-0.8,7.4c-3.2,5.1-9.9,6.7-15.1,3.6c-6.3-3.8-8.3-12-4.6-18.2c0.7-1.5,7.8-15.3,29.6-16.3
					c7.2-0.4,14.7-2,19.4-4.4l0.7-0.3c6.4-2.9,10.8-8.8,11.9-15.9c1-6.7-1.2-13-6.1-17.4c-0.4-0.3-0.8-0.7-1.2-1
					c-3.7-2.9-8.4-4-13.3-3c-6.9,1.3-11.7,5.3-13.1,11c-1.2,5.1,0.7,10.5,4.9,13.8c2.2,1.7,5,2.3,7.8,1.8c4.3-0.8,7.2-3.1,8-6.5
					c0.8-3-0.4-6.3-2.9-8.2c-1.3-1-2.9-1.4-4.4-1.2c-1.6,0.2-3,1-3.9,2.3c-0.6,0.8-1.7,0.9-2.4,0.3c-0.8-0.6-0.9-1.7-0.3-2.4
					c1.5-2,3.7-3.3,6.2-3.6s5,0.3,7,1.9c3.6,2.8,5.2,7.4,4.1,11.8c-1.2,4.7-5.2,8.2-10.8,9.1c-3.8,0.7-7.6-0.2-10.6-2.5
					c-5.3-4.1-7.7-10.9-6.1-17.3c1.7-7,7.6-12,15.8-13.6c5.9-1.1,11.6,0.2,16.1,3.7c0.5,0.4,0.9,0.8,1.4,1.2
					c5.8,5.2,8.4,12.7,7.3,20.5C501.5,678.4,499,683.1,495.4,686.8L495.4,686.8z"/>
				<path class="st0" d="M444.5,737.8c-3.6,3.6-8.4,6.1-13.6,6.8c-7.9,1.2-15.3-1.5-20.5-7.3c-0.4-0.4-0.8-0.9-1.2-1.4
					c-3.5-4.5-4.8-10.2-3.7-16.1c1.5-8.2,6.6-14.2,13.6-15.8c6.5-1.6,13.3,0.8,17.3,6.1c2.3,2.9,3.2,6.8,2.5,10.6
					c-1,5.6-4.4,9.6-9.1,10.8c-4.4,1.1-9-0.5-11.8-4.1c-1.6-2-2.2-4.5-1.9-7c0.3-2.5,1.6-4.7,3.6-6.2c0.8-0.6,1.8-0.4,2.4,0.3
					s0.4,1.8-0.3,2.4c-1.3,1-2.1,2.3-2.3,3.9c-0.2,1.6,0.2,3.2,1.2,4.5c1.9,2.5,5.2,3.6,8.2,2.9c3.4-0.8,5.8-3.8,6.5-8
					c0.5-2.8-0.2-5.7-1.8-7.8c-3.2-4.2-8.6-6.1-13.8-4.9c-5.7,1.4-9.7,6.1-11,13.1c-0.9,4.9,0.2,9.6,3.1,13.3c0.3,0.4,0.7,0.8,1,1.2
					c4.4,4.9,10.7,7.2,17.4,6.1c7-1.1,12.9-5.5,15.9-11.9l0.3-0.7c2.3-4.8,4-12.2,4.4-19.5c1-21.8,14.8-28.9,16.3-29.6
					c6.3-3.7,14.4-1.7,18.2,4.6c3.1,5.2,1.5,11.9-3.6,15.1c-2.1,1.3-4.9,1.6-7.4,0.8c-3.6-1.1-6-3.8-6.4-7c-0.4-3,1.1-5.9,3.6-7.5
					c0.8-0.5,1.9-0.2,2.4,0.6s0.2,1.9-0.6,2.4c-1.4,0.8-2.2,2.4-2,4.1c0.2,1.9,1.7,3.4,3.9,4.1c1.5,0.5,3.2,0.3,4.5-0.5
					c3.5-2.2,4.6-6.8,2.4-10.3c-2.8-4.7-8.9-6.2-13.6-3.4c-0.1,0-0.1,0.1-0.2,0.1c-0.5,0.2-13.4,6.3-14.3,26.6
					c-0.4,7.8-2.2,15.6-4.7,20.8l-0.3,0.6C448.2,733.3,446.5,735.8,444.5,737.8L444.5,737.8z"/>
			</g>
			<path class="st0" d="M449.4,691.6c-0.5,0.5-1.3,0.7-1.9,0.4c-0.6-0.2-13.5-5.8-19.8-13.9c-3-3.8-2.6-7.3-0.8-9
				c1.7-1.7,5.2-2.2,9,0.8c8,6.3,13.6,19.2,13.9,19.8C450.1,690.4,449.9,691.1,449.4,691.6z M429.3,671.5c-0.7,0.7-0.5,2.4,1.1,4.4
				l0,0c3.5,4.5,9.7,8.3,13.9,10.6c-2.3-4.2-6.1-10.4-10.6-13.9C431.7,671.1,430,670.9,429.3,671.5L429.3,671.5z M429.1,677.1
				L429.1,677.1L429.1,677.1z"/>
			<g>
				<path class="st0" d="M455.8,683.1c-0.3,0.3-0.8,0.5-1.2,0.5c-0.6,0-1.2-0.3-1.5-0.8c-0.4-0.6-3.8-6.1-2.9-10.6l0,0
					c0.4-2.2,2.2-3.6,4.3-3.6c2.2,0,4,1.5,4.4,3.6c0.9,4.5-2.5,10-2.9,10.6C455.9,682.9,455.8,683,455.8,683.1L455.8,683.1z
					 M451.8,672.5l1.7,0.3c-0.3,1.5,0.3,3.5,1,5.2c0.7-1.7,1.2-3.6,0.9-5.2c-0.2-0.8-0.7-0.8-1-0.8s-0.8,0.1-0.9,0.8L451.8,672.5z"
					/>
				<path class="st0" d="M440.8,698c-0.1,0.1-0.2,0.2-0.3,0.2c-0.6,0.4-6.1,3.8-10.6,2.9c-2.1-0.4-3.6-2.2-3.6-4.4s1.5-3.9,3.6-4.3
					l0,0c4.5-0.9,10,2.5,10.6,2.9c0.5,0.3,0.8,0.9,0.8,1.5C441.3,697.2,441.2,697.8,440.8,698L440.8,698z M430,696
					c-0.2,0.2-0.2,0.5-0.2,0.7s0.1,0.8,0.8,1c1.5,0.3,3.5-0.2,5.2-0.9c-1.7-0.7-3.7-1.3-5.2-1C430.3,695.8,430.2,695.9,430,696
					L430,696z"/>
			</g>
		</g>
		<g>
			<g>
				<polygon class="st0" points="479.7,522.3 473.1,529 466.5,522.3 473.1,515.6 				"/>
				<polygon class="st0" points="479.7,535.8 473.1,542.3 466.5,535.8 473.1,529 				"/>
			</g>
			<g>
				<polygon class="st0" points="479.7,608.2 473.1,614.8 466.5,608.2 473.1,601.5 				"/>
				<polygon class="st0" points="479.7,621.5 473.1,628.2 466.5,621.5 473.1,614.8 				"/>
			</g>
			<path class="st0" d="M473.1,664.5c0.9,0,1.7-0.7,1.7-1.7V502.8c0-0.9-0.7-1.7-1.7-1.7s-1.7,0.7-1.7,1.7v160.1
				C471.4,663.8,472.2,664.5,473.1,664.5z"/>
		</g>
		<g>
			<g>
				<polygon class="st0" points="280.5,708.6 287.2,715.3 280.5,721.9 273.8,715.3 				"/>
				<polygon class="st0" points="293.8,708.6 300.5,715.3 293.8,721.9 287.2,715.3 				"/>
			</g>
			<g>
				<polygon class="st0" points="366.3,708.6 373,715.3 366.3,721.9 359.7,715.3 				"/>
				<polygon class="st0" points="379.7,708.6 386.4,715.3 379.7,721.9 373,715.3 				"/>
			</g>
			<path class="st0" d="M260.9,716.9H421c0.9,0,1.7-0.7,1.7-1.7s-0.7-1.7-1.7-1.7H260.9c-0.9,0-1.7,0.7-1.7,1.7
				S260,716.9,260.9,716.9z"/>
		</g>
		<g>
			<path class="st0" d="M490.2,702.9c2,2,3.3,4.6,3.6,7.5v0.3c0.4,2.8,0,6.7-1,10.4c-2,7.2,0.8,11.4,1.8,12.7
				c-0.6-1.3-0.7-2.8,0-4.1c0.8-1.8,2.7-2.8,4.8-2.8c1.5,0,3,0.8,3.9,1.8c2.2,2.6,1.8,6.5-0.7,8.7c-1.5,1.3-3.4,1.9-5.3,1.7
				s-3.7-1-4.9-2.5c-0.8-0.8-6-6.4-3.1-16.7c0.9-3.2,1.2-6.6,0.9-8.9v-0.4c-0.3-3-2.1-5.5-4.8-6.9c-2.5-1.3-5.3-1.2-7.7,0.1
				c-0.2,0.1-0.4,0.2-0.6,0.3c-1.6,1-2.6,2.8-2.9,4.8c-0.4,2.9,0.5,5.3,2.5,6.5c1.8,1.1,4,1,5.7-0.1c0.8-0.5,1.4-1.5,1.5-2.5
				c0.2-1.6-0.2-2.9-1.3-3.5c-0.9-0.6-2.1-0.5-2.9,0.1c-0.8,0.5-1,1.7-0.5,2.5c0.6,0.8,0.3,2-0.5,2.6s-2,0.3-2.6-0.5
				c-1.7-2.5-1-5.9,1.5-7.6c2.1-1.4,4.8-1.5,7-0.1c2.3,1.5,3.4,4.2,3,7.2c-0.3,2.1-1.4,3.9-3.1,5.1c-2.9,2-6.8,2.1-9.8,0.2
				c-3.2-2-4.8-5.8-4.2-10.2c0.4-3,2.1-5.7,4.5-7.4c0.3-0.2,0.5-0.3,0.8-0.5c3.5-2,7.6-2.1,11.2-0.2
				C488.2,701.1,489.3,701.9,490.2,702.9L490.2,702.9z M496.7,735.3c0.3,0.1,0.6,0.2,0.9,0.2c1,0.1,1.9-0.2,2.6-0.9
				c1.1-0.9,1.2-2.5,0.3-3.5c-0.2-0.3-0.7-0.5-1.2-0.5c-0.7,0-1.2,0.2-1.4,0.6c-0.2,0.3-0.1,0.7,0.1,1c0.7,0.8,0.6,2-0.2,2.6
				C497.5,735.1,497.1,735.3,496.7,735.3L496.7,735.3z"/>
			<path class="st0" d="M495.3,734.5c1.2,1.2,2,2.8,2.1,4.6c0.2,1.9-0.5,3.8-1.7,5.3c-2.2,2.6-6.1,2.9-8.7,0.7
				c-1.1-0.9-1.8-2.4-1.8-3.9c0-2.2,1-4,2.8-4.8c1.3-0.6,2.8-0.6,4.1,0c-1.2-1-5.4-3.8-12.6-1.8c-3.7,1-7.6,1.4-10.4,1h-0.3
				c-4.2-0.5-7.9-3-9.8-6.8c-1.8-3.7-1.8-7.7,0.2-11.2c0.2-0.3,0.3-0.5,0.5-0.8c1.7-2.5,4.3-4.1,7.4-4.5c4.3-0.6,8.2,1,10.2,4.2
				c1.9,3,1.8,6.8-0.2,9.8c-1.1,1.7-3,2.8-5.1,3.1c-3.1,0.5-5.8-0.7-7.2-3c-1.3-2.2-1.3-4.9,0.1-7c1.7-2.5,5.1-3.2,7.6-1.5
				c0.8,0.6,1.1,1.7,0.5,2.6c-0.6,0.8-1.7,1.1-2.6,0.5c-0.8-0.5-1.9-0.3-2.5,0.5c-0.6,0.9-0.6,2-0.1,2.9c0.7,1,1.9,1.5,3.6,1.3
				c1.1-0.2,2-0.7,2.5-1.5c1.2-1.7,1.2-4,0.1-5.7c-1.2-2-3.6-2.9-6.5-2.5c-2,0.3-3.7,1.3-4.8,2.9c-0.1,0.2-0.2,0.4-0.3,0.5
				c-1.4,2.4-1.4,5.2-0.1,7.7c1.4,2.7,3.9,4.5,6.9,4.8h0.3c2.4,0.3,5.8,0,9-0.9c10.2-2.9,15.9,2.3,16.7,3.1
				C495.1,734.2,495.2,734.3,495.3,734.5L495.3,734.5z M489.3,742.2C489.3,742.2,489.3,742.3,489.3,742.2c1.1,0.9,2.7,0.8,3.6-0.2
				c0.6-0.7,0.9-1.7,0.9-2.6c0-0.3-0.1-0.6-0.2-0.9c0,0.4-0.2,0.8-0.4,1.2c-0.7,0.8-1.8,0.9-2.6,0.2c-0.3-0.2-0.7-0.3-1-0.1
				c-0.4,0.2-0.7,0.7-0.6,1.4C488.8,741.5,489,741.9,489.3,742.2L489.3,742.2z"/>
		</g>
	</g>
</g>
</svg>
