<?xml version="1.0" encoding="utf-8"?>
<!-- Generator: Adobe Illustrator 28.1.0, SVG Export Plug-In . SVG Version: 6.00 Build 0)  -->
<svg version="1.1" id="set" xmlns="http://www.w3.org/2000/svg" xmlns:xlink="http://www.w3.org/1999/xlink" x="0px" y="0px"
	 viewBox="0 0 490.1 305.9" style="enable-background:new 0 0 490.1 305.9;" xml:space="preserve">
<style type="text/css">
	.st0{fill:#181818;}
</style>
<g>
	<path class="st0" d="M443.1,200.5c0,0-0.1,0-0.1,0c-0.7-0.1-66.6-5.2-197.9-5.2s-197.3,5.1-197.9,5.2c-0.5,0-0.9-0.1-1.2-0.4
		L0.4,154c-0.6-0.6-0.6-1.5,0-2.1l45.5-46c0.3-0.3,0.8-0.5,1.2-0.4c0.7,0.1,66.6,5.2,197.9,5.2s197.3-5.1,197.9-5.2
		c0.4,0,0.9,0.1,1.2,0.4l45.5,46c0.6,0.6,0.6,1.5,0,2.1l-45.5,46C443.9,200.3,443.5,200.5,443.1,200.5L443.1,200.5z M245.1,192.3
		c124.3,0,190.1,4.6,197.5,5.1l44-44.5l-44-44.5c-7.4,0.6-73.2,5.1-197.5,5.1S55,109,47.6,108.5L3.6,153l44,44.5
		C55,196.9,120.8,192.3,245.1,192.3z"/>
	<path class="st0" d="M440,189.1C440,189.1,439.9,189.1,440,189.1c-1,0-96.1-3.9-194.9-3.9S51.2,189,50.2,189.1
		c-0.4,0-0.8-0.1-1.1-0.4L14.9,154c-0.6-0.6-0.6-1.5,0-2.1l34.2-34.6c0.3-0.3,0.7-0.5,1.1-0.4c1,0,96,3.9,194.8,3.9
		s193.9-3.9,194.8-3.9c0.4,0,0.8,0.1,1.1,0.4l34.2,34.6c0.6,0.6,0.6,1.5,0,2.1L441,188.6C440.8,188.9,440.4,189.1,440,189.1
		L440,189.1z M18.1,152.9L50.8,186c8.7-0.3,99.8-3.9,194.3-3.9l0,0c94.5,0,185.6,3.5,194.3,3.9l32.7-33.1l-32.7-33.1
		c-8.7,0.3-99.8,3.9-194.3,3.9s-185.6-3.5-194.3-3.9L18.1,152.9L18.1,152.9z"/>
	<g>
		<path class="st0" d="M247,103c-0.5,0-1-0.2-1.2-0.7l-25-38.1c-0.2-0.4-0.3-0.8-0.2-1.3s0.5-0.8,0.9-0.9c10-3.9,17.9-8.8,23.5-14.6
			c-1.5-1.8-2.8-3.6-3.9-5.5c-3-5.1-7.2-18.2-3-25.5c1.8-3.1,4.9-4.8,9-4.8s7.2,1.6,9,4.8c4.2,7.3,0,20.4-3,25.5
			c-1.1,1.9-2.5,3.7-3.9,5.5c5.6,5.8,13.5,10.8,23.5,14.6c0.4,0.2,0.8,0.5,0.9,0.9s0.1,0.9-0.2,1.3l-25,38.1
			C248,102.7,247.5,103,247,103L247,103z M224.2,64.1L247,98.7l22.8-34.7c-9.5-3.9-17.2-8.7-22.8-14.5
			C241.4,55.4,233.8,60.2,224.2,64.1z M247,14.6c-3,0-5.1,1.1-6.3,3.2c-3.3,5.9,0.2,17.8,3,22.5c1,1.7,2.1,3.2,3.4,4.8
			c1.3-1.5,2.4-3.1,3.4-4.8c2.8-4.7,6.3-16.6,3-22.5C252.1,15.7,250,14.6,247,14.6L247,14.6z"/>
		<path class="st0" d="M247,82.9c-0.7,0-1.3-0.5-1.5-1.2c-1.6-9.2-4.6-16.3-9-21.6c-5.3-6.4-13.1-9.8-20.1-9
			c-4.2,0.5-7.8,2.5-9.5,5.4c-1.7,2.8-1.5,7.4,1.5,9.4c0.7,0.5,0.9,1.4,0.4,2.1s-1.4,0.9-2.1,0.4c-4-2.7-5.1-8.8-2.4-13.4
			c2.2-3.7,6.6-6.3,11.8-6.9c8.1-0.9,16.8,3,22.8,10.1c3.7,4.4,6.4,9.8,8.2,16.4c1.8-6.6,4.5-12,8.2-16.4c6-7.1,14.7-11,22.8-10.1
			c5.2,0.6,9.5,3.1,11.8,6.9c2.7,4.6,1.6,10.7-2.4,13.4c-0.7,0.5-1.6,0.3-2.1-0.4s-0.3-1.6,0.4-2.1c3-2,3.2-6.5,1.5-9.4
			c-1.7-2.9-5.3-5-9.5-5.4c-7.1-0.8-14.8,2.7-20.1,9c-4.5,5.3-7.4,12.4-9,21.6C248.3,82.4,247.7,82.9,247,82.9L247,82.9z"/>
		<path class="st0" d="M378.1,104.3c-9.3,0-19.3-2.2-31.4-7c-3.9-1.5-7.7-3.2-11.7-5c-16.6-7.3-33.8-14.8-51.2-10
			c-12,3.3-19.5,12.6-23.8,19.9c-0.4,0.7-1.3,0.9-2,0.5c-0.7-0.4-1-1.3-0.5-2.1c6.5-11.1,15.3-18.4,25.5-21.2
			c18.4-5.1,36.1,2.7,53.2,10.2c4,1.8,7.8,3.4,11.6,4.9c8.6,3.4,16.2,5.5,23.1,6.3c0,0,0,0,0.1,0c12.9,0,21.7-18,22.8-27.6
			c0.1-0.6,0.5-1.1,1-1.2c0.6-0.2,1.2-0.1,1.6,0.4c2.1,2.2,3.1,8.2,3,12.2c10.7-5.7,12.3-15.9,12.5-20.3c0-0.7,0.5-1.3,1.2-1.4
			c0.7-0.1,1.4,0.2,1.7,0.8c5.1,10.7,0.1,23.2-7.5,30.1c-7.1,6.4-17.3,10.2-28,10.4C378.9,104.3,378.5,104.3,378.1,104.3
			L378.1,104.3z M395.7,78.6c-2.2,8.1-7.8,18.1-15.7,22.8c9.7-0.4,18.8-3.8,25.1-9.6c5.3-4.8,9.2-12.6,8.5-20.3
			c-2.3,7.7-7.8,13.8-15.5,17.1c-0.5,0.2-1.1,0.1-1.6-0.2s-0.6-1-0.5-1.5C396.6,85,396.3,81.4,395.7,78.6L395.7,78.6z"/>
		<path class="st0" d="M115.7,104.3c-0.3,0-0.7,0-1.1,0c-10.7-0.2-20.9-4-28-10.4c-7.6-6.9-12.6-19.5-7.5-30.1c0.3-0.6,1-1,1.7-0.8
			s1.2,0.7,1.2,1.4c0.2,4.3,1.8,14.5,12.5,20.3c-0.1-4,0.9-10,3-12.2c0.4-0.4,1-0.6,1.5-0.4s0.9,0.7,1,1.2
			c1.1,9.6,9.9,27.6,22.8,27.6c0,0,0,0,0,0c6.9-0.9,14.4-2.9,23.1-6.3c3.8-1.5,7.6-3.2,11.6-4.9c17.1-7.5,34.8-15.2,53.2-10.2
			c10.2,2.8,19.1,10.2,25.5,21.2c0.4,0.7,0.2,1.6-0.5,2.1c-0.7,0.4-1.6,0.2-2-0.5c-4.2-7.2-11.8-16.6-23.8-19.9
			c-17.4-4.8-34.6,2.7-51.2,10c-4,1.8-7.9,3.4-11.7,5C135,102.1,125,104.4,115.7,104.3L115.7,104.3z M80.1,71.4
			c-0.7,7.7,3.3,15.5,8.5,20.3c6.3,5.8,15.5,9.2,25.1,9.6c-7.9-4.6-13.4-14.6-15.7-22.8c-0.6,2.9-0.8,6.5-0.4,8.2
			c0.1,0.6,0,1.1-0.5,1.5s-1,0.5-1.6,0.2C87.9,85.2,82.4,79.1,80.1,71.4L80.1,71.4z"/>
		<path class="st0" d="M203.6,81.2c-0.1,0-0.2,0-0.3,0c-4.7-0.9-8.4-3.9-10.8-8.7c-3.7-7.4-3.5-18.6,0.4-26.7
			c5.2-10.7,15.2-16.9,26.1-17c-0.5-7.6,1.4-13.9,5.6-18.9c6.7-7.9,17.5-10,22.3-10s15.6,2.1,22.3,10c4.2,5,6.1,11.4,5.6,18.9
			c10.8,0,20.8,6.3,26.1,17c3.9,8,4.1,19.2,0.4,26.6c-2.3,4.7-6.1,7.7-10.8,8.7c-0.8,0.2-1.6-0.4-1.8-1.2c-0.2-0.8,0.4-1.6,1.2-1.8
			c3.8-0.8,6.7-3.1,8.7-7c3.3-6.6,3.1-16.7-0.5-24c-4.7-9.7-13.7-15.3-23.5-15.3c-0.1,0-0.1,0-0.2,0c0,0.3-0.1,0.6-0.1,0.8
			c-1.6,9.5-6.3,11.9-8.3,12.5c-2.4,0.7-4.8,0-6.3-1.7c-1.5-1.8-2-3.8-1.5-5.9c1.1-3.8,5.3-6.7,7.4-7.3c2-0.7,4.1-1.1,6.2-1.3
			c0.5-6.9-1.1-12.7-4.9-17.2c-6-7-15.7-8.9-20-8.9s-14,1.9-20,8.9c-3.8,4.4-5.4,10.2-4.9,17.2c2,0.2,4.1,0.6,6.2,1.3
			c2.1,0.7,6.4,3.5,7.4,7.3c0.6,2.1,0.1,4.1-1.5,5.9c-1.5,1.7-3.9,2.4-6.3,1.7c-2-0.6-6.8-2.9-8.3-12.5c0-0.3-0.1-0.6-0.1-0.8
			c-0.1,0-0.1,0-0.2,0c-9.8,0-18.8,5.6-23.5,15.3c-3.5,7.3-3.7,17.4-0.4,24c2,3.9,4.9,6.3,8.7,7c0.8,0.2,1.3,0.9,1.2,1.8
			C205,80.7,204.3,81.2,203.6,81.2L203.6,81.2z M222.4,32.1c0,0,0,0.1,0,0.2c1.3,8.1,5.1,9.8,6.2,10.1c1.3,0.4,2.5,0.1,3.2-0.8
			c0.9-1,1.1-2,0.8-3.1c-0.7-2.5-4-4.8-5.5-5.3C225.7,32.7,224,32.3,222.4,32.1L222.4,32.1z M271.4,32.1c-1.6,0.2-3.2,0.6-4.9,1.1
			c-1.5,0.5-4.8,2.8-5.5,5.3c-0.3,1.1,0,2.1,0.8,3.1c0.8,0.8,2,1.1,3.2,0.8c1.1-0.3,4.9-2,6.2-10.1
			C271.4,32.2,271.4,32.2,271.4,32.1L271.4,32.1z"/>
		<path class="st0" d="M347.5,104c-4.2,0-8.8-0.9-13.8-2.7c-3.5-1.2-6.9-2.6-10.3-4c-3.5-1.4-7.1-2.9-10.8-4.2
			c-5.5-1.9-13.8-4.3-21.1-3.2c-2.4,0.4-6.5,1.6-6.8,5.4c-0.1,1.4,0.4,2.7,1.2,3.6c0.7,0.7,1.7,1.1,2.8,1c0.8,0,1.5,0.6,1.6,1.4
			c0,0.8-0.6,1.5-1.4,1.6c-1.9,0.1-3.8-0.6-5.1-1.9c-1.5-1.5-2.2-3.6-2.1-5.9c0.3-4.4,3.7-7.4,9.3-8.2c8-1.2,16.7,1.3,22.5,3.3
			c3.7,1.3,7.4,2.8,10.9,4.2c3.3,1.4,6.7,2.8,10.1,3.9c11.5,4,20.4,3.1,26.6-2.7c2.3-2.1,4-4.9,5-8c1.2-3.7,0.9-7.3-0.5-10
			c-1.6-2.9-5.1-4.6-7.9-3.8c-0.8,0.2-1.6-0.2-1.8-1.1s0.2-1.6,1.1-1.8c4.2-1.1,9,1.1,11.4,5.3c1.9,3.4,2.2,7.9,0.8,12.3
			c-1.1,3.6-3.1,6.9-5.8,9.3C359,102,353.8,104,347.5,104L347.5,104z"/>
		<path class="st0" d="M146.4,104c-6.3,0-11.6-2-15.8-6c-2.7-2.5-4.6-5.7-5.8-9.3c-1.4-4.5-1.1-9,0.8-12.3c2.3-4.2,7.2-6.4,11.4-5.3
			c0.8,0.2,1.3,1.1,1,1.8c-0.2,0.8-1,1.3-1.8,1.1c-2.8-0.8-6.3,0.9-7.9,3.8c-1.5,2.7-1.7,6.3-0.5,10c1,3.1,2.7,5.9,5,8
			c6.2,5.8,15.2,6.7,26.6,2.7c3.4-1.2,6.8-2.6,10.1-3.9c3.5-1.5,7.2-3,10.9-4.2c5.8-2,14.5-4.5,22.5-3.3c5.7,0.8,9.1,3.8,9.3,8.2
			c0.1,2.2-0.6,4.4-2.1,5.9c-1.3,1.3-3.2,2-5.1,1.9c-0.8-0.1-1.5-0.8-1.4-1.6c0-0.8,0.7-1.4,1.6-1.4c1.1,0.1,2.1-0.3,2.8-1
			c0.9-0.9,1.3-2.2,1.2-3.6c-0.2-3.9-4.3-5.1-6.8-5.4c-7.4-1.1-15.6,1.3-21.1,3.2c-3.6,1.2-7.3,2.7-10.8,4.2
			c-3.3,1.4-6.8,2.8-10.3,4C155.2,103.1,150.6,104,146.4,104L146.4,104z"/>
	</g>
	<g>
		<path class="st0" d="M247,294.3c-4.1,0-7.2-1.6-9-4.8c-4.2-7.3,0-20.4,3-25.5c1.1-1.9,2.5-3.7,3.9-5.5
			c-5.6-5.9-13.5-10.7-23.5-14.6c-0.4-0.2-0.8-0.5-0.9-0.9c-0.1-0.4-0.1-0.9,0.2-1.3l25-38.1c0.5-0.9,2-0.9,2.5,0l25,38.1
			c0.2,0.4,0.3,0.9,0.2,1.3s-0.5,0.8-0.9,0.9c-10,3.9-17.9,8.8-23.5,14.6c1.5,1.8,2.8,3.6,3.9,5.5c3,5.1,7.2,18.1,3,25.5
			C254.2,292.6,251.1,294.3,247,294.3L247,294.3z M247,260.8c-1.3,1.5-2.4,3.1-3.4,4.8c-2.8,4.7-6.3,16.6-3,22.5
			c1.2,2.2,3.3,3.2,6.3,3.2s5.1-1.1,6.3-3.2c3.3-5.9-0.2-17.8-3-22.5C249.4,263.9,248.3,262.3,247,260.8L247,260.8z M224.2,241.8
			c9.5,3.9,17.2,8.7,22.8,14.5c5.6-5.8,13.2-10.6,22.8-14.5L247,207.2L224.2,241.8L224.2,241.8z"/>
		<path class="st0" d="M218.4,257.9c-0.8,0-1.6,0-2.3-0.1c-5.2-0.6-9.5-3.1-11.8-6.9c-2.7-4.6-1.6-10.7,2.4-13.4
			c0.7-0.5,1.6-0.3,2.1,0.4s0.3,1.6-0.4,2.1c-3,2-3.2,6.5-1.5,9.4c1.7,2.9,5.3,5,9.5,5.4c7.1,0.8,14.8-2.7,20.1-9
			c4.5-5.3,7.4-12.4,9-21.6c0.1-0.7,0.8-1.2,1.5-1.2s1.3,0.5,1.5,1.2c1.6,9.2,4.6,16.3,9,21.6c5.3,6.4,13.1,9.8,20.1,9
			c4.2-0.5,7.8-2.5,9.5-5.4c1.7-2.8,1.5-7.4-1.5-9.4c-0.7-0.5-0.9-1.4-0.4-2.1s1.4-0.9,2.1-0.4c4,2.7,5.1,8.8,2.4,13.4
			c-2.2,3.7-6.6,6.3-11.8,6.9c-8.1,0.9-16.8-3-22.8-10.1c-3.7-4.4-6.4-9.8-8.2-16.4c-1.8,6.6-4.5,12-8.2,16.4
			C233.4,254.2,225.8,257.9,218.4,257.9L218.4,257.9z"/>
		<path class="st0" d="M413.3,243c-0.1,0-0.2,0-0.3,0c-0.7-0.1-1.2-0.7-1.2-1.4c-0.2-4.3-1.8-14.5-12.5-20.3c0.1,4-0.9,10-3,12.2
			c-0.4,0.4-1,0.6-1.6,0.4s-0.9-0.7-1-1.2c-1.1-9.6-9.9-27.6-22.8-27.6c0,0,0,0-0.1,0c-6.9,0.9-14.4,2.9-23.1,6.3
			c-3.8,1.5-7.6,3.2-11.6,4.9c-17.1,7.5-34.8,15.2-53.2,10.1c-10.2-2.8-19.1-10.2-25.5-21.2c-0.4-0.7-0.2-1.6,0.5-2.1
			c0.7-0.4,1.6-0.2,2,0.5c4.2,7.2,11.8,16.6,23.8,19.9c17.4,4.8,34.6-2.7,51.2-10c4.1-1.8,7.9-3.4,11.7-5c12.6-4.9,22.9-7.1,32.5-7
			c10.7,0.2,20.9,4,28,10.4c7.6,6.9,12.6,19.5,7.5,30.1C414.4,242.7,413.9,243,413.3,243L413.3,243z M397.6,217.3
			c0.2,0,0.4,0,0.6,0.1c7.8,3.3,13.3,9.4,15.5,17.1c0.7-7.6-3.3-15.5-8.5-20.3c-6.3-5.8-15.4-9.2-25.1-9.6
			c7.9,4.6,13.4,14.6,15.7,22.8c0.6-2.9,0.8-6.5,0.4-8.2c-0.1-0.6,0-1.1,0.5-1.5C396.9,217.4,397.2,217.3,397.6,217.3L397.6,217.3z"
			/>
		<path class="st0" d="M80.5,243c-0.6,0-1.1-0.3-1.3-0.9c-5.1-10.7-0.1-23.2,7.5-30.1c7.1-6.4,17.3-10.2,28-10.4
			c9.6-0.1,19.9,2,32.5,7c3.9,1.5,7.7,3.2,11.7,5c16.6,7.3,33.8,14.8,51.2,10c12-3.3,19.5-12.6,23.8-19.9c0.4-0.7,1.3-0.9,2-0.5
			c0.7,0.4,1,1.3,0.5,2.1c-6.5,11.1-15.3,18.4-25.5,21.2c-18.4,5.1-36.1-2.7-53.2-10.1c-4-1.8-7.8-3.4-11.6-4.9
			c-8.6-3.4-16.2-5.5-23.1-6.3c0,0,0,0,0,0c-12.9,0-21.7,17.9-22.8,27.6c-0.1,0.6-0.5,1.1-1,1.2c-0.5,0.2-1.2,0.1-1.6-0.4
			c-2.1-2.2-3.1-8.2-3-12.2C83.8,227,82.2,237.2,82,241.6c0,0.7-0.5,1.3-1.2,1.4C80.7,243,80.6,243,80.5,243L80.5,243z M113.8,204.6
			c-9.7,0.4-18.8,3.9-25.1,9.6c-5.3,4.8-9.2,12.6-8.5,20.3c2.3-7.6,7.8-13.8,15.5-17.1c0.5-0.2,1.1-0.1,1.6,0.2s0.6,1,0.5,1.5
			c-0.4,1.7-0.2,5.3,0.4,8.2C100.4,219.3,105.9,209.3,113.8,204.6L113.8,204.6z"/>
		<path class="st0" d="M246.9,305.9c-4.8,0-15.6-2.1-22.3-10c-4.2-5-6.1-11.4-5.6-18.9c-10.8,0-20.8-6.3-26.1-17
			c-3.9-8-4.1-19.3-0.4-26.7c2.3-4.7,6.1-7.7,10.8-8.6c0.8-0.2,1.6,0.4,1.8,1.2c0.2,0.8-0.4,1.6-1.2,1.8c-3.8,0.8-6.7,3.1-8.7,7
			c-3.3,6.6-3.1,16.7,0.4,24c4.7,9.6,13.7,15.3,23.5,15.3h0.2c0-0.3,0.1-0.6,0.1-0.9c1.6-9.5,6.4-11.9,8.3-12.5
			c2.4-0.7,4.8,0,6.3,1.7c1.5,1.8,2,3.8,1.5,5.9c-1.1,3.8-5.3,6.6-7.4,7.3c-2,0.7-4.1,1.1-6.2,1.3c-0.5,6.9,1.1,12.7,4.9,17.1
			c6,7,15.7,8.9,20,8.9s14-1.9,20-8.9c3.8-4.5,5.4-10.2,4.9-17.1c-2-0.2-4.1-0.6-6.2-1.3c-2.1-0.7-6.4-3.5-7.4-7.3
			c-0.6-2.1-0.1-4.1,1.5-5.9c1.5-1.7,3.9-2.4,6.3-1.7c2,0.6,6.8,2.9,8.3,12.5c0,0.3,0.1,0.6,0.1,0.9c9.8,0,18.9-5.6,23.7-15.3
			c3.5-7.3,3.7-17.4,0.5-24c-2-3.9-4.9-6.3-8.7-7c-0.8-0.2-1.3-0.9-1.2-1.8c0.2-0.8,1-1.3,1.8-1.2c4.7,0.9,8.4,3.9,10.8,8.6
			c3.7,7.4,3.5,18.6-0.4,26.6c-5.2,10.7-15.2,16.9-26.1,17c0.5,7.6-1.4,13.9-5.6,18.9C262.5,303.8,251.7,305.9,246.9,305.9
			L246.9,305.9z M229.7,263.4c-0.3,0-0.7,0-1.1,0.2c-1.1,0.3-4.9,2-6.2,10.1c0,0,0,0.1,0,0.2c1.6-0.2,3.2-0.6,4.9-1.1
			c1.5-0.5,4.8-2.8,5.5-5.3c0.3-1.1,0-2.1-0.8-3.1C231.4,263.7,230.6,263.4,229.7,263.4L229.7,263.4z M264.1,263.4
			c-0.9,0-1.6,0.3-2.2,0.9c-0.9,1-1.1,2-0.8,3.1c0.7,2.5,4,4.8,5.5,5.3c1.6,0.5,3.2,0.9,4.9,1.1c0,0,0-0.1,0-0.2
			c-1.3-8.1-5.1-9.8-6.2-10.1C264.8,263.4,264.4,263.4,264.1,263.4L264.1,263.4z"/>
		<path class="st0" d="M359.2,235.1c-0.8,0-1.5-0.1-2.2-0.3c-0.8-0.2-1.3-1.1-1.1-1.8c0.2-0.8,1-1.3,1.8-1.1
			c2.8,0.8,6.3-0.9,7.9-3.8c1.5-2.7,1.7-6.3,0.5-10c-1-3.1-2.7-5.9-5-8c-6.2-5.8-15.2-6.7-26.6-2.7c-3.4,1.2-6.8,2.6-10.1,4
			c-3.5,1.5-7.2,3-10.9,4.2c-5.8,2-14.5,4.5-22.5,3.4c-5.7-0.8-9.1-3.8-9.3-8.2c-0.1-2.2,0.6-4.4,2.1-5.9c1.3-1.3,3.1-2,5.1-1.9
			c0.8,0.1,1.5,0.8,1.4,1.6c0,0.8-0.8,1.4-1.6,1.4c-1.1-0.1-2.1,0.3-2.8,1c-0.9,0.9-1.3,2.2-1.2,3.6c0.2,3.9,4.3,5.1,6.8,5.4
			c7.4,1.1,15.6-1.3,21.1-3.2c3.6-1.2,7.2-2.7,10.8-4.2c3.3-1.4,6.8-2.8,10.3-4c12.6-4.4,22.6-3.3,29.7,3.3c2.7,2.5,4.6,5.7,5.8,9.3
			c1.4,4.5,1.1,9-0.8,12.4C366.3,233,362.7,235.2,359.2,235.1L359.2,235.1z"/>
		<path class="st0" d="M134.7,235.1c-3.6,0-7.2-2.1-9.1-5.6c-1.9-3.4-2.2-7.9-0.8-12.4c1.1-3.6,3.1-6.9,5.8-9.3
			c7.1-6.6,17.1-7.7,29.7-3.3c3.5,1.2,6.9,2.6,10.3,4c3.5,1.4,7.1,2.9,10.8,4.2c5.5,1.9,13.8,4.3,21.1,3.2c2.4-0.4,6.5-1.6,6.8-5.4
			c0.1-1.4-0.4-2.7-1.2-3.6c-0.7-0.7-1.7-1.1-2.8-1c-0.8,0-1.5-0.6-1.6-1.4c0-0.8,0.6-1.5,1.4-1.6c2-0.1,3.8,0.6,5.1,1.9
			c1.5,1.5,2.2,3.6,2.1,5.9c-0.3,4.4-3.7,7.4-9.3,8.2c-8,1.2-16.7-1.3-22.5-3.4c-3.7-1.3-7.4-2.8-10.9-4.2c-3.3-1.4-6.7-2.8-10.1-4
			c-11.5-4-20.4-3.1-26.6,2.7c-2.3,2.1-4,4.9-5,8c-1.2,3.7-1,7.3,0.5,10c1.6,2.9,5.1,4.6,7.9,3.8c0.8-0.2,1.6,0.2,1.8,1.1
			c0.2,0.8-0.2,1.6-1,1.8C136.2,235,135.4,235.1,134.7,235.1L134.7,235.1z"/>
	</g>
</g>
</svg>
